<svg xmlns="http://www.w3.org/2000/svg" xmlns:xlink="http://www.w3.org/1999/xlink" id="svg" version="1.1" viewBox="21.21 122.99 339.99 78.01"><g id="svgg"><path id="path0" d="M59.300 123.364 C 58.805 123.598,58.400 123.927,58.400 124.095 C 58.400 124.263,58.147 124.400,57.838 124.400 C 56.905 124.400,53.955 126.114,52.432 127.542 C 51.644 128.279,50.910 128.887,50.800 128.892 C 49.850 128.937,46.365 132.073,45.890 133.310 C 45.744 133.689,45.414 134.000,45.157 134.000 C 44.486 134.000,43.628 135.253,43.613 136.253 C 43.593 137.568,42.109 137.746,40.938 136.574 C 40.326 135.963,39.504 135.600,38.729 135.600 C 38.040 135.600,37.208 135.279,36.847 134.874 C 35.407 133.257,30.600 135.098,30.600 137.266 C 30.600 137.413,30.436 137.683,30.236 137.867 C 30.024 138.060,29.992 137.990,30.159 137.700 C 30.337 137.391,30.209 137.200,29.824 137.200 C 29.481 137.200,29.200 137.503,29.200 137.874 C 29.200 138.245,28.795 138.994,28.300 139.539 C 27.805 140.083,27.625 140.399,27.900 140.241 C 28.209 140.063,28.400 140.191,28.400 140.576 C 28.400 140.919,28.211 141.200,27.979 141.200 C 27.748 141.200,27.367 141.749,27.133 142.420 C 26.899 143.092,26.609 143.543,26.490 143.423 C 26.370 143.303,26.004 143.587,25.677 144.054 C 25.146 144.813,25.152 144.942,25.741 145.271 C 26.656 145.783,26.569 146.537,25.624 146.290 C 25.053 146.141,24.746 146.367,24.465 147.144 C 24.254 147.725,23.943 148.545,23.773 148.966 C 23.555 149.506,23.602 149.646,23.935 149.440 C 24.573 149.046,25.028 150.332,24.453 150.907 C 23.912 151.448,23.843 153.600,24.367 153.600 C 24.568 153.600,24.814 153.375,24.912 153.100 C 25.010 152.825,25.237 152.737,25.416 152.904 C 25.595 153.072,25.350 153.574,24.871 154.020 C 23.762 155.052,23.767 155.067,25.200 155.067 C 26.258 155.067,26.400 154.929,26.400 153.906 C 26.400 152.904,26.522 152.776,27.300 152.969 C 27.795 153.092,27.986 153.093,27.725 152.971 C 26.822 152.550,28.830 151.001,30.500 150.831 C 30.665 150.814,30.800 150.608,30.800 150.373 C 30.800 150.129,30.415 150.045,29.900 150.177 C 29.357 150.316,29.516 150.139,30.300 149.731 C 31.015 149.359,31.600 148.764,31.600 148.407 C 31.600 148.051,31.823 147.537,32.097 147.263 C 32.483 146.877,32.486 146.700,32.110 146.468 C 31.770 146.258,31.910 145.957,32.587 145.449 C 33.122 145.047,33.451 144.478,33.331 144.164 C 33.201 143.826,33.367 143.600,33.743 143.600 C 34.462 143.600,35.316 142.257,34.886 141.803 C 34.492 141.386,36.508 142.004,36.980 142.445 C 37.189 142.640,37.602 142.800,37.897 142.800 C 39.406 142.800,40.054 144.210,39.000 145.200 C 38.450 145.717,38.000 146.522,38.000 146.990 C 38.000 147.457,37.775 148.082,37.500 148.379 C 37.225 148.675,37.189 148.813,37.420 148.685 C 37.651 148.557,38.059 148.803,38.328 149.233 C 38.757 149.920,38.682 150.065,37.712 150.433 L 36.609 150.853 37.604 151.603 C 38.593 152.349,38.594 152.363,37.877 153.577 C 37.443 154.312,37.333 154.800,37.601 154.800 C 37.846 154.800,37.951 154.956,37.833 155.147 C 37.529 155.639,39.063 156.932,39.575 156.616 C 39.809 156.471,40.000 156.093,40.000 155.776 C 40.000 155.459,40.368 155.200,40.818 155.200 C 41.309 155.200,41.588 154.976,41.518 154.638 C 41.383 153.995,43.053 152.400,43.861 152.400 C 44.635 152.400,44.526 151.734,43.700 151.414 C 43.048 151.161,43.053 151.104,43.776 150.571 C 44.510 150.032,44.514 149.972,43.855 149.489 C 43.094 148.933,43.358 147.403,44.149 147.783 C 44.397 147.902,44.876 148.100,45.213 148.224 C 45.550 148.347,46.056 148.968,46.338 149.605 C 46.620 150.241,47.213 150.877,47.655 151.018 C 48.098 151.158,48.358 151.375,48.234 151.500 C 47.729 152.004,48.893 152.821,49.453 152.356 C 49.855 152.023,50.000 152.021,50.000 152.351 C 50.000 152.598,49.820 152.800,49.600 152.800 C 48.863 152.800,49.190 153.943,50.000 154.200 C 50.440 154.340,50.800 154.622,50.800 154.827 C 50.800 155.032,51.101 155.200,51.470 155.200 C 52.024 155.200,51.978 155.028,51.201 154.202 C 50.686 153.652,50.388 153.078,50.541 152.926 C 50.694 152.773,51.094 153.042,51.432 153.524 C 51.769 154.006,52.317 154.400,52.650 154.400 C 53.084 154.400,53.178 154.639,52.984 155.250 C 52.803 155.822,52.859 156.011,53.157 155.826 C 53.409 155.671,53.600 155.822,53.600 156.176 C 53.600 156.533,53.942 156.800,54.400 156.800 C 54.840 156.800,55.200 156.620,55.200 156.400 C 55.200 156.180,54.902 156.000,54.538 156.000 C 53.922 156.000,53.922 155.949,54.538 155.269 C 54.902 154.866,55.200 154.354,55.200 154.130 C 55.200 153.907,55.556 153.402,55.991 153.009 C 56.920 152.167,56.671 151.427,55.644 151.977 C 55.156 152.238,54.573 152.168,53.768 151.753 C 52.180 150.934,51.679 150.400,52.496 150.400 C 52.857 150.400,53.264 150.580,53.400 150.800 C 53.916 151.635,54.679 151.169,54.712 150.000 C 54.731 149.340,54.559 148.800,54.330 148.800 C 54.102 148.800,54.018 149.070,54.145 149.400 C 54.441 150.173,53.844 150.176,53.204 149.405 C 52.805 148.924,52.829 148.764,53.331 148.571 C 54.504 148.121,51.451 143.977,48.419 141.903 C 47.414 141.215,47.412 141.205,48.300 141.203 C 49.033 141.200,49.200 140.977,49.200 140.000 C 49.200 139.174,49.397 138.800,49.831 138.800 C 50.492 138.800,53.600 135.804,53.600 135.167 C 53.600 134.965,53.945 134.800,54.366 134.800 C 54.787 134.800,55.642 134.260,56.265 133.600 C 56.888 132.940,57.550 132.400,57.737 132.400 C 57.924 132.400,58.606 132.023,59.254 131.562 C 60.532 130.651,62.942 131.262,63.467 132.630 C 63.587 132.944,63.943 133.200,64.257 133.200 C 65.148 133.200,66.800 134.427,66.800 135.089 C 66.800 135.460,67.031 135.597,67.413 135.450 C 67.822 135.293,68.154 135.553,68.412 136.232 C 68.625 136.791,68.987 137.132,69.217 136.990 C 69.447 136.847,69.906 136.956,70.236 137.230 C 70.690 137.606,70.719 137.803,70.354 138.028 C 69.993 138.252,70.038 138.495,70.532 138.989 C 70.896 139.353,71.403 139.522,71.659 139.364 C 71.947 139.186,72.016 139.251,71.840 139.535 C 71.684 139.788,72.014 140.450,72.578 141.015 C 73.630 142.067,73.927 142.649,73.173 142.183 C 72.938 142.038,72.647 142.297,72.526 142.760 C 72.406 143.222,72.148 143.600,71.953 143.600 C 71.759 143.600,71.600 143.876,71.600 144.213 C 71.600 144.549,71.285 144.944,70.900 145.090 C 69.970 145.442,69.046 146.379,69.339 146.672 C 69.468 146.801,69.129 147.255,68.586 147.682 C 67.488 148.546,67.276 149.600,68.200 149.600 C 68.825 149.600,68.993 150.073,68.532 150.534 C 68.385 150.681,67.961 150.527,67.590 150.191 C 66.583 149.280,65.597 150.454,66.560 151.417 C 67.381 152.238,67.369 152.335,66.347 153.163 C 65.631 153.742,65.567 153.992,65.952 154.710 C 66.338 155.431,66.283 155.634,65.605 155.997 C 64.202 156.748,65.202 159.081,66.683 158.513 C 67.434 158.225,67.318 157.544,66.541 157.682 C 66.179 157.747,65.804 157.575,65.708 157.300 C 65.599 156.988,65.904 156.800,66.520 156.800 C 67.542 156.800,67.843 155.323,67.069 154.100 C 66.866 153.779,66.976 153.600,67.376 153.600 C 67.797 153.600,68.000 153.976,68.000 154.757 C 68.000 155.443,68.258 156.013,68.633 156.157 C 69.624 156.537,69.706 156.466,69.502 155.400 C 69.397 154.850,69.459 154.400,69.640 154.400 C 69.821 154.400,70.700 153.662,71.593 152.760 C 72.565 151.778,73.449 151.210,73.797 151.344 C 74.707 151.693,75.264 150.339,74.463 149.729 C 73.850 149.263,73.852 149.224,74.495 149.213 C 74.894 149.205,75.421 148.647,75.733 147.900 C 76.305 146.530,77.923 144.817,77.534 145.992 C 77.427 146.318,77.712 146.897,78.169 147.279 C 78.626 147.661,78.786 147.979,78.524 147.987 C 78.262 147.994,77.934 147.817,77.796 147.593 C 77.434 147.008,76.794 147.519,77.051 148.188 C 77.169 148.497,77.521 148.652,77.833 148.532 C 78.167 148.404,78.400 148.561,78.400 148.914 C 78.400 149.244,78.130 149.618,77.800 149.745 C 77.470 149.871,77.200 149.820,77.200 149.630 C 77.200 149.441,76.945 149.188,76.633 149.068 C 76.183 148.895,76.204 149.097,76.733 150.045 C 77.232 150.938,77.626 151.197,78.300 151.075 C 78.873 150.970,79.200 151.109,79.200 151.455 C 79.200 151.755,78.930 152.000,78.600 152.000 C 77.975 152.000,77.807 152.473,78.268 152.934 C 78.415 153.081,78.853 152.914,79.242 152.562 C 80.267 151.635,80.950 152.250,79.977 153.223 C 79.186 154.014,79.186 154.019,79.992 154.883 C 80.913 155.873,81.028 156.638,80.300 156.942 C 79.936 157.093,79.991 157.305,80.500 157.719 C 81.212 158.298,81.509 159.838,80.828 159.417 C 80.623 159.291,80.350 159.357,80.221 159.566 C 80.092 159.774,80.157 160.050,80.366 160.179 C 80.574 160.308,80.858 160.230,80.996 160.007 C 81.383 159.380,82.114 159.526,81.863 160.180 C 81.715 160.567,81.833 160.685,82.220 160.537 C 82.984 160.244,82.960 159.017,82.174 158.232 C 81.393 157.450,81.810 156.545,82.636 157.230 C 83.375 157.844,83.361 157.165,82.613 156.176 C 81.867 155.191,81.846 154.766,82.554 155.038 C 83.153 155.268,83.253 153.423,82.690 152.534 C 82.206 151.770,82.554 149.036,83.200 148.527 C 83.668 148.158,83.694 147.947,83.319 147.566 C 82.987 147.229,82.959 146.851,83.228 146.348 C 83.524 145.795,83.422 145.422,82.809 144.809 C 82.364 144.364,82.003 143.775,82.006 143.500 C 82.011 143.120,82.092 143.126,82.345 143.525 C 82.602 143.930,82.984 143.793,84.016 142.925 C 84.751 142.306,85.409 141.845,85.477 141.900 C 85.829 142.186,86.413 141.944,86.200 141.600 C 86.064 141.380,86.143 141.200,86.376 141.200 C 86.609 141.200,86.800 141.486,86.800 141.836 C 86.800 142.186,87.520 143.499,88.400 144.754 C 89.280 146.008,90.000 147.421,90.000 147.894 C 90.000 148.366,90.180 148.864,90.400 149.000 C 90.620 149.136,90.800 149.568,90.800 149.959 C 90.800 150.351,91.246 150.875,91.792 151.124 C 92.438 151.418,92.702 151.789,92.550 152.186 C 92.421 152.521,92.137 152.685,91.918 152.549 C 91.677 152.400,91.688 152.616,91.946 153.099 C 92.262 153.689,92.649 153.841,93.445 153.689 C 94.188 153.547,94.432 153.625,94.236 153.942 C 94.080 154.194,93.558 154.406,93.076 154.414 C 92.231 154.428,92.235 154.448,93.198 154.980 C 94.667 155.794,95.177 159.184,93.747 158.635 C 93.446 158.520,93.200 158.599,93.200 158.813 C 93.200 159.667,94.479 159.127,95.119 158.003 C 95.493 157.344,96.025 156.804,96.300 156.803 C 96.896 156.800,96.971 157.847,96.400 158.200 C 96.180 158.336,96.014 158.662,96.032 158.924 C 96.054 159.267,96.119 159.261,96.265 158.900 C 96.376 158.625,96.831 158.400,97.276 158.400 C 97.868 158.400,98.017 158.220,97.829 157.732 C 97.688 157.365,97.799 156.924,98.075 156.754 C 98.781 156.317,98.322 155.991,96.856 155.888 C 95.616 155.801,95.351 155.582,95.863 155.070 C 96.008 154.925,96.372 155.011,96.673 155.260 C 96.973 155.510,97.350 155.583,97.510 155.424 C 97.893 155.040,97.885 152.800,97.500 152.800 C 97.335 152.800,97.200 152.614,97.200 152.386 C 97.200 152.105,97.458 152.110,98.000 152.400 C 98.440 152.635,98.800 153.092,98.800 153.414 C 98.800 153.736,98.964 154.000,99.165 154.000 C 99.365 154.000,99.474 153.775,99.406 153.500 C 99.015 151.918,98.668 151.234,98.355 151.428 C 98.160 151.549,98.000 151.436,98.000 151.178 C 98.000 150.866,97.669 150.925,97.014 151.354 C 95.869 152.104,95.600 152.151,95.600 151.600 C 95.600 151.380,95.870 151.200,96.200 151.200 C 96.530 151.200,96.800 151.040,96.800 150.843 C 96.800 150.647,97.250 150.374,97.800 150.236 C 98.762 149.994,99.222 149.200,98.400 149.200 C 98.180 149.200,98.000 148.930,98.000 148.600 C 98.000 148.270,97.809 148.000,97.576 148.000 C 97.343 148.000,97.264 147.820,97.400 147.600 C 97.627 147.233,97.080 147.022,96.270 147.163 C 96.089 147.194,96.056 147.032,96.198 146.803 C 96.339 146.574,96.623 146.491,96.828 146.617 C 97.830 147.236,97.035 145.937,95.930 145.150 C 95.232 144.653,94.872 144.176,95.130 144.090 C 96.139 143.754,93.167 138.000,91.985 138.000 C 91.773 138.000,91.600 137.683,91.600 137.296 C 91.600 136.909,91.240 136.368,90.800 136.093 C 90.360 135.818,90.000 135.238,90.000 134.804 C 90.000 134.115,89.759 134.028,88.100 134.118 C 85.747 134.246,80.800 136.538,80.800 137.500 C 80.800 138.002,80.689 138.049,80.334 137.694 C 79.979 137.339,79.743 137.392,79.347 137.914 C 78.870 138.541,78.824 138.520,78.813 137.676 C 78.805 137.082,78.635 136.855,78.338 137.038 C 78.073 137.202,77.984 137.149,78.130 136.914 C 78.269 136.689,77.923 135.986,77.361 135.352 C 76.799 134.718,76.067 133.802,75.734 133.316 C 75.401 132.829,74.826 132.335,74.456 132.218 C 74.087 132.101,73.445 131.374,73.029 130.602 C 72.600 129.806,71.966 129.200,71.561 129.200 C 71.168 129.200,70.734 129.017,70.596 128.793 C 70.458 128.570,70.149 128.508,69.911 128.655 C 69.643 128.821,69.592 128.736,69.778 128.435 C 69.971 128.124,69.775 127.866,69.240 127.726 C 68.778 127.606,68.400 127.337,68.400 127.130 C 68.400 126.922,68.239 126.852,68.042 126.974 C 67.845 127.096,67.592 126.956,67.480 126.663 C 67.261 126.094,62.947 123.802,62.083 123.797 C 61.799 123.795,61.439 123.615,61.283 123.397 C 60.902 122.863,60.376 122.855,59.300 123.364 M59.800 136.286 C 56.396 137.170,54.492 141.269,56.124 144.199 C 56.369 144.640,56.530 145.140,56.481 145.311 C 56.432 145.482,56.709 145.740,57.096 145.883 C 57.483 146.027,58.072 146.449,58.404 146.822 C 58.736 147.195,59.535 147.500,60.179 147.500 C 61.288 147.500,61.309 147.469,60.578 146.934 C 59.912 146.448,59.888 146.316,60.402 145.990 C 61.483 145.307,61.823 145.614,61.630 147.100 C 61.541 147.784,62.328 147.729,63.057 147.000 C 63.590 146.467,63.587 146.400,63.029 146.400 C 62.683 146.400,62.400 146.141,62.400 145.824 C 62.400 144.914,63.109 144.713,63.575 145.492 C 63.976 146.161,64.034 146.155,64.617 145.400 C 64.957 144.960,65.362 144.647,65.517 144.705 C 65.673 144.763,65.826 144.493,65.858 144.105 C 65.890 143.717,66.021 142.856,66.148 142.191 C 66.286 141.472,66.140 140.521,65.790 139.845 C 65.465 139.220,65.200 138.412,65.200 138.050 C 65.200 137.143,63.601 136.152,63.195 136.808 C 63.006 137.114,62.842 137.138,62.748 136.875 C 62.562 136.352,60.856 136.011,59.800 136.286 M81.739 144.586 C 81.875 144.941,81.692 145.045,81.170 144.908 C 80.747 144.797,80.400 144.463,80.400 144.166 C 80.400 143.513,81.454 143.843,81.739 144.586 M41.600 144.738 C 41.600 145.504,40.189 146.300,39.400 145.980 C 38.703 145.698,38.692 145.653,39.313 145.628 C 39.704 145.613,40.129 145.330,40.255 145.000 C 40.497 144.370,41.600 144.155,41.600 144.738 M81.200 145.553 C 81.200 146.092,79.637 146.383,79.339 145.901 C 79.190 145.661,79.265 145.593,79.511 145.745 C 79.749 145.892,80.058 145.830,80.196 145.607 C 80.505 145.107,81.200 145.070,81.200 145.553 M42.749 146.675 C 42.270 147.264,42.287 147.317,42.880 147.095 C 43.365 146.913,43.496 147.006,43.337 147.420 C 43.094 148.053,42.000 148.227,42.000 147.633 C 42.000 146.904,42.494 146.000,42.892 146.000 C 43.115 146.000,43.051 146.304,42.749 146.675 M31.561 147.447 C 30.901 148.242,30.441 148.128,30.677 147.228 C 30.799 146.761,31.105 146.542,31.450 146.674 C 31.888 146.842,31.914 147.022,31.561 147.447 M26.200 151.600 C 26.336 151.820,26.066 152.000,25.600 152.000 C 25.134 152.000,24.864 151.820,25.000 151.600 C 25.136 151.380,25.406 151.200,25.600 151.200 C 25.794 151.200,26.064 151.380,26.200 151.600 M69.600 152.200 C 69.600 152.530,69.420 152.800,69.200 152.800 C 68.980 152.800,68.800 152.530,68.800 152.200 C 68.800 151.870,68.980 151.600,69.200 151.600 C 69.420 151.600,69.600 151.870,69.600 152.200 M28.957 153.148 C 28.985 153.890,29.177 154.229,29.500 154.105 C 30.179 153.846,30.142 152.000,29.457 152.000 C 29.117 152.000,28.931 152.427,28.957 153.148 M81.600 153.800 C 81.050 154.462,80.000 154.613,80.000 154.029 C 80.000 153.701,80.707 153.385,81.749 153.246 C 81.941 153.221,81.874 153.470,81.600 153.800 M26.800 154.800 C 26.800 155.020,27.160 155.200,27.600 155.200 C 28.040 155.200,28.400 155.020,28.400 154.800 C 28.400 154.580,28.040 154.400,27.600 154.400 C 27.160 154.400,26.800 154.580,26.800 154.800 M56.000 155.600 C 56.000 156.347,56.107 156.453,56.480 156.080 C 56.853 155.707,56.853 155.493,56.480 155.120 C 56.107 154.747,56.000 154.853,56.000 155.600 M92.578 156.035 C 92.431 156.274,92.510 156.670,92.755 156.915 C 93.082 157.242,93.200 157.126,93.200 156.480 C 93.200 155.514,92.992 155.365,92.578 156.035 M26.278 156.256 C 25.958 156.575,26.319 157.200,26.824 157.200 C 27.031 157.200,27.200 156.930,27.200 156.600 C 27.200 155.981,26.728 155.805,26.278 156.256 M36.000 157.115 C 36.000 157.288,36.360 157.457,36.800 157.490 C 37.240 157.523,37.600 157.381,37.600 157.175 C 37.600 156.969,37.240 156.800,36.800 156.800 C 36.360 156.800,36.000 156.942,36.000 157.115 M56.617 157.172 C 56.344 157.614,56.975 158.092,57.344 157.722 C 57.725 157.342,57.654 156.800,57.224 156.800 C 57.017 156.800,56.744 156.968,56.617 157.172 M55.319 157.690 C 54.541 158.695,54.360 159.200,54.776 159.200 C 55.009 159.200,55.200 158.945,55.200 158.633 C 55.200 158.322,55.425 157.986,55.700 157.888 C 55.975 157.790,56.091 157.591,55.957 157.445 C 55.823 157.300,55.536 157.410,55.319 157.690 M162.109 158.809 C 162.076 159.253,162.218 159.513,162.424 159.385 C 162.879 159.104,162.927 158.000,162.485 158.000 C 162.312 158.000,162.143 158.364,162.109 158.809 M57.867 158.667 C 57.307 159.226,57.630 159.673,58.232 159.173 C 58.755 158.739,59.016 158.742,59.732 159.188 C 60.523 159.681,60.551 159.670,60.051 159.064 C 59.493 158.390,58.352 158.182,57.867 158.667 M35.662 160.400 C 35.785 162.486,36.338 162.489,36.260 160.402 C 36.227 159.524,36.058 158.804,35.884 158.802 C 35.710 158.801,35.610 159.520,35.662 160.400 M56.000 160.000 C 56.000 160.440,56.180 160.800,56.400 160.800 C 56.620 160.800,56.800 160.440,56.800 160.000 C 56.800 159.560,56.620 159.200,56.400 159.200 C 56.180 159.200,56.000 159.560,56.000 160.000 M66.400 160.167 C 66.400 160.478,66.175 160.824,65.900 160.935 C 65.611 161.052,65.585 161.150,65.838 161.168 C 66.079 161.186,66.602 160.840,67.000 160.400 C 67.651 159.681,67.657 159.600,67.062 159.600 C 66.698 159.600,66.400 159.855,66.400 160.167 M95.206 160.300 C 95.224 161.177,95.988 161.759,95.994 160.900 C 95.997 160.405,95.820 160.000,95.600 160.000 C 95.380 160.000,95.203 160.135,95.206 160.300 M42.800 181.429 C 42.800 181.853,44.036 182.897,44.267 182.667 C 44.392 182.541,44.217 182.160,43.876 181.819 C 43.241 181.184,42.800 181.024,42.800 181.429 " stroke="none" fill="#d3dcf9" fill-rule="evenodd"/><path id="path1" d="M50.700 128.157 C 50.315 128.449,50.000 128.825,50.000 128.993 C 50.000 129.161,50.242 129.097,50.537 128.852 C 50.832 128.607,51.170 128.503,51.287 128.621 C 51.405 128.738,51.608 128.557,51.738 128.217 C 52.026 127.467,51.638 127.445,50.700 128.157 M73.443 131.369 C 73.656 131.924,74.800 132.589,74.800 132.159 C 74.800 131.878,73.722 130.800,73.441 130.800 C 73.322 130.800,73.323 131.056,73.443 131.369 M32.553 134.621 C 32.688 134.974,32.622 135.137,32.399 134.999 C 31.873 134.674,30.133 136.453,30.133 137.315 C 30.133 137.937,30.591 137.891,30.607 137.267 C 30.622 136.648,32.160 135.286,32.637 135.469 C 32.969 135.597,33.133 135.369,33.093 134.834 C 33.058 134.375,32.869 134.000,32.672 134.000 C 32.475 134.000,32.422 134.279,32.553 134.621 M43.012 136.117 C 42.841 136.512,42.813 136.947,42.951 137.084 C 43.357 137.490,43.684 136.920,43.497 136.131 C 43.332 135.433,43.310 135.432,43.012 136.117 M59.836 135.942 C 59.720 136.130,60.141 136.265,60.773 136.242 C 61.405 136.219,61.838 136.065,61.737 135.900 C 61.485 135.490,60.096 135.520,59.836 135.942 M80.260 136.987 C 80.136 137.310,80.187 137.668,80.372 137.783 C 80.557 137.897,80.803 137.633,80.917 137.196 C 81.156 136.281,80.599 136.104,80.260 136.987 M69.300 137.300 C 69.391 137.575,69.806 137.866,70.220 137.946 C 70.873 138.073,70.902 138.005,70.438 137.446 C 69.804 136.682,69.062 136.586,69.300 137.300 M91.600 137.504 C 91.600 137.671,91.960 138.032,92.400 138.307 C 93.330 138.888,93.454 138.597,92.629 137.771 C 91.998 137.141,91.600 137.037,91.600 137.504 M65.200 138.553 C 65.200 138.883,65.380 139.264,65.600 139.400 C 65.820 139.536,66.000 139.377,66.000 139.047 C 66.000 138.717,65.820 138.336,65.600 138.200 C 65.380 138.064,65.200 138.223,65.200 138.553 M49.200 139.600 C 49.200 140.040,49.337 140.400,49.504 140.400 C 49.671 140.400,50.032 140.040,50.307 139.600 C 50.745 138.900,50.707 138.800,50.003 138.800 C 49.467 138.800,49.200 139.066,49.200 139.600 M27.742 139.906 C 27.888 140.142,27.781 140.582,27.504 140.883 C 26.594 141.872,26.010 143.159,26.369 143.381 C 26.563 143.501,26.910 143.059,27.140 142.400 C 27.370 141.740,27.748 141.200,27.979 141.200 C 28.547 141.200,28.516 140.119,27.938 139.762 C 27.664 139.593,27.585 139.651,27.742 139.906 M66.153 141.830 C 66.127 142.574,66.262 143.086,66.453 142.967 C 66.878 142.705,66.915 140.918,66.500 140.662 C 66.335 140.561,66.179 141.086,66.153 141.830 M48.000 141.620 C 49.387 142.561,50.178 142.835,49.200 142.036 C 48.650 141.586,48.020 141.217,47.800 141.215 C 47.580 141.213,47.670 141.396,48.000 141.620 M86.200 141.600 C 86.416 141.949,85.934 142.161,85.148 142.063 C 85.009 142.046,84.576 142.385,84.186 142.816 C 83.778 143.266,83.673 143.600,83.938 143.600 C 84.192 143.600,84.400 143.441,84.400 143.247 C 84.400 142.627,86.444 142.450,86.674 143.049 C 86.791 143.352,87.082 143.600,87.323 143.600 C 87.615 143.600,87.601 143.441,87.280 143.120 C 87.016 142.856,86.800 142.316,86.800 141.920 C 86.800 141.524,86.609 141.200,86.376 141.200 C 86.143 141.200,86.064 141.380,86.200 141.600 M38.340 143.541 C 39.228 144.224,39.242 144.301,38.592 144.951 C 38.214 145.329,38.016 145.750,38.152 145.886 C 38.289 146.022,38.400 146.018,38.400 145.877 C 38.400 145.735,38.832 145.784,39.361 145.985 C 40.266 146.329,41.600 145.545,41.600 144.669 C 41.600 144.137,40.480 144.413,40.255 145.000 C 40.129 145.330,39.722 145.600,39.351 145.600 C 38.726 145.600,38.725 145.546,39.328 144.880 C 40.023 144.112,39.107 142.787,37.895 142.809 C 37.623 142.814,37.823 143.143,38.340 143.541 M33.282 144.162 C 33.347 144.471,32.967 145.101,32.439 145.562 C 31.910 146.023,31.678 146.400,31.923 146.400 C 32.522 146.400,34.000 144.781,34.000 144.125 C 34.000 143.836,33.812 143.600,33.582 143.600 C 33.353 143.600,33.218 143.853,33.282 144.162 M80.400 144.166 C 80.400 144.463,80.747 144.797,81.170 144.908 C 81.692 145.045,81.875 144.941,81.739 144.586 C 81.454 143.843,80.400 143.513,80.400 144.166 M95.263 143.953 C 94.855 144.211,95.023 144.504,95.963 145.174 C 96.643 145.658,97.200 145.874,97.200 145.654 C 97.200 145.434,96.840 145.140,96.400 145.000 C 95.960 144.860,95.600 144.568,95.600 144.349 C 95.600 144.131,95.780 144.064,96.000 144.200 C 96.220 144.336,96.400 144.257,96.400 144.024 C 96.400 143.516,95.993 143.490,95.263 143.953 M62.689 145.044 C 62.136 145.597,62.405 146.308,63.252 146.530 C 64.213 146.781,65.373 145.863,65.064 145.096 C 64.911 144.719,64.856 144.725,64.832 145.124 C 64.814 145.414,64.595 145.520,64.338 145.362 C 64.052 145.185,63.985 145.252,64.162 145.538 C 64.591 146.233,63.956 146.093,63.433 145.378 C 63.183 145.035,62.848 144.885,62.689 145.044 M24.549 145.788 C 24.413 146.143,24.413 146.547,24.551 146.684 C 24.688 146.821,24.800 146.740,24.800 146.504 C 24.800 146.263,25.174 146.173,25.654 146.298 C 26.268 146.459,26.455 146.365,26.320 145.961 C 26.050 145.148,24.840 145.030,24.549 145.788 M80.196 145.607 C 80.058 145.830,79.749 145.892,79.511 145.745 C 79.265 145.593,79.190 145.661,79.339 145.901 C 79.637 146.383,81.200 146.092,81.200 145.553 C 81.200 145.070,80.505 145.107,80.196 145.607 M88.413 145.500 C 88.406 145.775,88.580 146.000,88.800 146.000 C 89.020 146.000,89.200 146.360,89.200 146.800 C 89.200 147.240,89.380 147.600,89.600 147.600 C 90.220 147.600,90.075 146.979,89.213 145.944 C 88.781 145.425,88.421 145.225,88.413 145.500 M60.402 145.990 C 59.889 146.315,59.917 146.451,60.599 146.950 C 61.458 147.578,62.096 147.115,61.720 146.136 C 61.478 145.506,61.214 145.477,60.402 145.990 M76.690 146.301 C 76.341 146.686,75.868 147.496,75.638 148.101 C 75.403 148.719,74.909 149.206,74.510 149.213 C 73.838 149.225,73.837 149.254,74.494 149.752 C 74.875 150.042,75.070 150.396,74.927 150.540 C 74.784 150.683,74.857 150.800,75.091 150.800 C 75.514 150.800,76.179 149.654,76.068 149.114 C 76.036 148.957,76.277 148.932,76.605 149.057 C 76.932 149.183,77.200 149.441,77.200 149.630 C 77.200 149.820,77.470 149.871,77.800 149.745 C 78.130 149.618,78.400 149.244,78.400 148.914 C 78.400 148.561,78.167 148.404,77.833 148.532 C 77.521 148.652,77.169 148.497,77.051 148.188 C 76.794 147.519,77.434 147.008,77.796 147.593 C 77.934 147.817,78.262 147.994,78.524 147.987 C 78.786 147.979,78.626 147.661,78.169 147.279 C 77.712 146.897,77.412 146.363,77.503 146.092 C 77.732 145.403,77.433 145.479,76.690 146.301 M42.243 146.633 C 42.109 146.981,42.000 147.431,42.000 147.633 C 42.000 148.227,43.094 148.053,43.337 147.420 C 43.496 147.006,43.365 146.913,42.880 147.095 C 42.287 147.317,42.270 147.264,42.749 146.675 C 43.051 146.304,43.115 146.000,42.892 146.000 C 42.668 146.000,42.376 146.285,42.243 146.633 M30.682 147.210 C 30.466 148.033,30.967 148.300,31.404 147.593 C 31.542 147.370,31.823 147.291,32.028 147.417 C 32.232 147.544,32.400 147.553,32.400 147.438 C 32.400 146.690,30.870 146.487,30.682 147.210 M96.195 146.809 C 96.055 147.035,96.089 147.194,96.270 147.163 C 97.080 147.022,97.627 147.233,97.400 147.600 C 97.264 147.820,97.343 148.000,97.576 148.000 C 98.275 148.000,98.055 147.258,97.224 146.813 C 96.694 146.529,96.368 146.528,96.195 146.809 M37.396 147.300 C 37.298 147.575,37.281 148.160,37.359 148.600 C 37.437 149.040,37.216 149.725,36.868 150.122 C 36.354 150.709,36.327 150.991,36.721 151.622 C 37.074 152.187,37.082 152.400,36.751 152.400 C 36.454 152.400,36.374 152.885,36.521 153.793 C 36.654 154.608,36.567 155.297,36.312 155.454 C 36.033 155.627,35.993 155.535,36.200 155.200 C 36.414 154.854,36.367 154.773,36.062 154.962 C 35.559 155.272,35.411 158.799,35.900 158.802 C 36.065 158.804,36.227 159.524,36.260 160.402 C 36.293 161.281,36.136 162.000,35.911 162.000 C 35.680 162.000,35.730 162.274,36.024 162.629 C 36.317 162.982,36.507 164.026,36.456 165.007 C 36.406 165.969,36.553 167.126,36.783 167.578 C 37.012 168.030,37.393 168.779,37.630 169.242 C 37.936 169.842,37.936 170.007,37.630 169.818 C 37.393 169.672,37.200 169.733,37.200 169.953 C 37.200 170.173,37.380 170.464,37.600 170.600 C 37.820 170.736,38.000 171.276,38.000 171.800 C 38.000 172.324,38.180 172.864,38.400 173.000 C 38.620 173.136,38.800 173.597,38.800 174.024 C 38.800 174.451,38.980 174.800,39.200 174.800 C 39.420 174.800,39.600 175.160,39.600 175.600 C 39.600 176.040,39.780 176.400,40.000 176.400 C 40.220 176.400,40.400 176.760,40.400 177.200 C 40.400 177.640,40.580 178.000,40.800 178.000 C 41.020 178.000,41.200 178.226,41.200 178.502 C 41.200 178.778,41.920 179.769,42.800 180.703 C 43.680 181.637,44.400 182.671,44.400 183.001 C 44.400 183.330,44.580 183.600,44.800 183.600 C 45.020 183.600,45.200 183.855,45.200 184.167 C 45.200 184.479,46.112 185.514,47.226 186.467 C 48.340 187.420,49.907 188.785,50.709 189.500 C 51.511 190.215,52.399 190.800,52.683 190.800 C 52.968 190.800,53.200 190.936,53.200 191.102 C 53.200 191.269,53.740 191.644,54.400 191.936 C 56.065 192.673,55.899 193.200,54.000 193.200 C 53.120 193.200,52.400 193.020,52.400 192.800 C 52.400 192.580,52.097 192.400,51.726 192.400 C 51.355 192.400,50.606 191.995,50.061 191.500 C 49.517 191.005,49.201 190.825,49.359 191.100 C 49.542 191.418,49.396 191.600,48.957 191.600 C 48.577 191.600,48.384 191.483,48.527 191.339 C 48.671 191.196,48.386 190.868,47.894 190.610 C 47.402 190.353,46.640 189.943,46.200 189.700 C 45.475 189.300,44.701 189.009,43.910 188.840 C 43.751 188.806,42.941 188.154,42.110 187.391 C 41.280 186.628,40.456 186.003,40.281 186.002 C 39.847 185.999,36.400 182.575,36.398 182.144 C 36.397 181.955,35.857 181.225,35.198 180.522 C 34.539 179.819,34.000 179.060,34.000 178.836 C 34.000 178.612,33.640 178.235,33.200 178.000 C 32.760 177.765,32.400 177.308,32.400 176.986 C 32.400 176.664,32.220 176.400,32.000 176.400 C 31.780 176.400,31.600 176.040,31.600 175.600 C 31.600 175.160,31.420 174.800,31.200 174.800 C 30.980 174.800,30.800 174.080,30.800 173.200 C 30.800 172.320,30.620 171.600,30.400 171.600 C 30.180 171.600,30.000 171.276,30.000 170.880 C 30.000 170.484,29.832 169.989,29.627 169.780 C 29.422 169.571,29.201 168.185,29.136 166.700 C 29.071 165.208,28.835 163.997,28.609 163.994 C 28.340 163.990,28.344 163.887,28.621 163.694 C 28.852 163.532,29.041 162.590,29.041 161.600 C 29.041 160.610,28.852 159.668,28.621 159.506 C 28.333 159.305,28.341 159.210,28.646 159.206 C 28.929 159.202,29.060 158.394,29.006 156.986 C 28.960 155.768,29.067 154.682,29.245 154.572 C 29.424 154.462,29.396 153.916,29.185 153.360 C 28.683 152.041,28.650 152.124,29.800 151.836 C 31.084 151.513,31.113 150.728,29.832 150.960 C 28.601 151.183,27.055 152.659,27.725 152.971 C 27.986 153.093,27.795 153.092,27.300 152.969 C 26.522 152.776,26.400 152.904,26.400 153.906 C 26.400 154.929,26.258 155.067,25.200 155.067 C 23.767 155.067,23.762 155.052,24.871 154.020 C 25.350 153.574,25.595 153.072,25.416 152.904 C 25.237 152.737,25.010 152.825,24.912 153.100 C 24.814 153.375,24.568 153.600,24.367 153.600 C 23.843 153.600,23.912 151.448,24.453 150.907 C 25.047 150.313,24.620 149.238,23.836 149.354 C 23.076 149.465,22.495 150.000,23.133 150.000 C 23.390 150.000,23.600 150.191,23.600 150.424 C 23.600 150.657,23.392 150.719,23.138 150.562 C 22.882 150.404,22.784 150.450,22.918 150.667 C 23.050 150.882,22.934 151.494,22.660 152.029 C 22.385 152.563,22.116 154.332,22.062 155.960 C 22.008 157.588,21.792 159.241,21.582 159.634 C 21.081 160.571,21.092 162.686,21.600 163.000 C 21.820 163.136,22.000 164.641,22.000 166.344 C 22.000 168.055,22.196 169.636,22.438 169.878 C 22.680 170.120,22.895 170.966,22.918 171.758 C 22.940 172.551,23.103 173.200,23.279 173.200 C 23.456 173.200,23.600 173.725,23.600 174.367 C 23.600 175.008,23.803 175.601,24.051 175.684 C 24.298 175.766,24.536 176.186,24.578 176.617 C 24.699 177.856,25.539 179.600,26.014 179.600 C 26.252 179.600,26.336 179.780,26.200 180.000 C 26.064 180.220,26.143 180.400,26.376 180.400 C 26.609 180.400,26.800 180.760,26.800 181.200 C 26.800 181.640,26.980 182.000,27.200 182.000 C 27.420 182.000,27.600 182.360,27.600 182.800 C 27.600 183.240,27.768 183.600,27.974 183.600 C 28.180 183.600,28.732 184.283,29.201 185.117 C 29.670 185.951,30.447 186.806,30.927 187.017 C 31.407 187.228,31.978 187.805,32.195 188.300 C 32.412 188.795,32.823 189.200,33.107 189.200 C 33.392 189.200,33.746 189.515,33.893 189.899 C 34.247 190.822,35.843 192.400,36.421 192.400 C 36.673 192.400,37.383 192.940,38.000 193.600 C 38.617 194.260,39.409 194.800,39.760 194.800 C 40.112 194.800,40.400 194.950,40.400 195.133 C 40.400 195.595,45.144 198.000,46.056 198.000 C 46.465 198.000,46.800 198.180,46.800 198.400 C 46.800 198.620,47.340 198.800,48.000 198.800 C 48.660 198.800,49.200 198.980,49.200 199.200 C 49.200 199.420,49.794 199.600,50.520 199.600 C 51.246 199.600,52.011 199.764,52.220 199.965 C 52.938 200.654,64.635 201.390,65.018 200.770 C 65.144 200.567,66.216 200.400,67.400 200.400 C 68.584 200.400,69.664 200.220,69.800 200.000 C 69.936 199.780,70.566 199.600,71.200 199.600 C 71.834 199.600,72.464 199.420,72.600 199.200 C 72.736 198.980,73.366 198.800,74.000 198.800 C 74.634 198.800,75.264 198.620,75.400 198.400 C 75.536 198.180,75.957 198.000,76.335 198.000 C 76.714 198.000,77.283 197.640,77.600 197.200 C 77.929 196.743,78.635 196.400,79.246 196.400 C 79.846 196.400,80.420 196.126,80.554 195.775 C 80.686 195.431,80.967 195.256,81.177 195.386 C 81.388 195.516,81.755 195.257,81.994 194.811 C 82.233 194.365,82.757 194.000,83.158 194.000 C 83.917 194.000,93.200 185.106,93.200 184.379 C 93.200 184.152,93.560 183.580,94.000 183.108 C 94.440 182.636,94.800 182.013,94.800 181.725 C 94.800 181.436,94.980 181.200,95.200 181.200 C 95.420 181.200,95.600 180.840,95.600 180.400 C 95.600 179.960,95.799 179.600,96.043 179.600 C 96.286 179.600,96.379 179.323,96.250 178.985 C 96.113 178.629,96.274 178.270,96.630 178.133 C 96.969 178.003,97.156 177.663,97.047 177.378 C 96.937 177.092,97.107 176.643,97.424 176.380 C 97.741 176.117,98.000 175.504,98.000 175.018 C 98.000 174.531,98.125 174.008,98.278 173.855 C 98.431 173.702,98.601 173.275,98.655 172.906 C 98.709 172.536,98.981 171.810,99.258 171.291 C 99.677 170.509,99.664 170.285,99.182 169.980 C 98.783 169.728,98.757 169.610,99.100 169.606 C 99.385 169.603,99.600 169.095,99.600 168.424 C 99.600 167.777,99.780 167.136,100.000 167.000 C 100.220 166.864,100.400 165.313,100.400 163.553 C 100.400 161.521,100.254 160.443,100.000 160.600 C 99.780 160.736,99.600 160.567,99.600 160.224 C 99.600 159.881,99.780 159.600,100.000 159.600 C 100.604 159.600,100.485 156.808,99.872 156.572 C 99.538 156.444,99.407 155.932,99.517 155.185 C 99.621 154.477,99.511 154.000,99.245 154.000 C 99.000 154.000,98.800 153.736,98.800 153.414 C 98.800 153.092,98.440 152.635,98.000 152.400 C 97.458 152.110,97.200 152.105,97.200 152.386 C 97.200 152.614,97.335 152.800,97.500 152.800 C 97.885 152.800,97.893 155.040,97.510 155.424 C 97.350 155.583,96.973 155.510,96.673 155.260 C 96.372 155.011,96.008 154.925,95.863 155.070 C 95.351 155.582,95.616 155.801,96.856 155.888 C 98.322 155.991,98.781 156.317,98.075 156.754 C 97.799 156.924,97.688 157.365,97.829 157.732 C 98.017 158.220,97.868 158.400,97.276 158.400 C 96.831 158.400,96.376 158.625,96.265 158.900 C 96.119 159.261,96.054 159.267,96.032 158.924 C 96.014 158.662,96.180 158.336,96.400 158.200 C 96.971 157.847,96.896 156.800,96.300 156.803 C 96.025 156.804,95.493 157.344,95.119 158.003 C 94.744 158.661,94.178 159.200,93.861 159.200 C 93.420 159.200,93.289 159.764,93.306 161.581 C 93.319 162.891,93.135 164.197,92.898 164.482 C 92.661 164.768,92.467 165.896,92.467 166.990 C 92.467 168.083,92.272 169.043,92.033 169.122 C 91.795 169.202,91.600 169.781,91.600 170.410 C 91.600 171.038,91.420 171.664,91.200 171.800 C 90.980 171.936,90.800 172.487,90.800 173.024 C 90.800 173.561,90.601 174.000,90.357 174.000 C 90.114 174.000,90.021 174.277,90.150 174.615 C 90.285 174.965,90.131 175.328,89.793 175.458 C 89.467 175.583,89.199 176.071,89.198 176.543 C 89.197 177.014,88.696 177.940,88.085 178.600 C 87.474 179.260,86.539 180.430,86.006 181.200 C 85.474 181.970,84.747 182.870,84.391 183.200 C 84.036 183.530,83.628 184.115,83.485 184.500 C 83.342 184.885,83.038 185.200,82.809 185.200 C 82.580 185.200,81.828 185.740,81.137 186.400 C 80.446 187.060,79.657 187.600,79.383 187.600 C 79.110 187.600,78.772 187.896,78.633 188.257 C 78.495 188.619,78.271 188.804,78.136 188.669 C 78.001 188.534,77.392 188.778,76.783 189.212 C 76.175 189.645,75.423 190.000,75.114 190.000 C 74.804 190.000,74.157 190.367,73.675 190.816 C 73.186 191.272,72.800 191.421,72.800 191.154 C 72.800 190.851,72.532 190.919,72.068 191.339 C 71.665 191.703,71.230 191.897,71.102 191.769 C 70.974 191.641,70.449 191.800,69.935 192.123 C 68.707 192.894,66.000 193.373,66.000 192.818 C 66.000 192.588,66.245 192.400,66.544 192.400 C 66.843 192.400,67.788 191.740,68.644 190.933 C 69.500 190.125,70.245 189.540,70.301 189.633 C 70.487 189.943,77.200 183.189,77.200 182.691 C 77.200 182.419,77.740 181.688,78.400 181.065 C 79.060 180.442,79.600 179.677,79.600 179.366 C 79.600 179.055,79.780 178.800,80.000 178.800 C 80.220 178.800,80.400 178.440,80.400 178.000 C 80.400 177.560,80.580 177.200,80.800 177.200 C 81.020 177.200,81.200 176.739,81.200 176.176 C 81.200 175.613,81.342 175.240,81.515 175.348 C 81.688 175.455,81.869 175.071,81.917 174.495 C 81.965 173.919,82.363 173.065,82.802 172.598 C 83.255 172.116,83.600 171.197,83.600 170.474 C 83.600 169.773,83.780 169.200,84.000 169.200 C 84.220 169.200,84.400 168.516,84.400 167.680 C 84.400 166.844,84.620 165.940,84.890 165.670 C 85.277 165.283,85.276 165.013,84.887 164.390 C 84.578 163.897,84.549 163.600,84.807 163.600 C 85.075 163.600,85.205 161.665,85.175 158.134 C 85.149 155.128,84.989 152.893,84.820 153.168 C 84.600 153.524,84.450 153.436,84.301 152.864 C 84.139 152.245,84.241 152.116,84.745 152.305 C 85.329 152.523,85.336 152.471,84.814 151.830 C 84.485 151.426,84.279 150.515,84.345 149.755 C 84.460 148.414,83.945 148.012,83.000 148.706 C 82.511 149.065,82.282 151.891,82.690 152.534 C 83.253 153.423,83.153 155.268,82.554 155.038 C 81.846 154.766,81.867 155.191,82.613 156.176 C 83.361 157.165,83.375 157.844,82.636 157.230 C 81.810 156.545,81.393 157.450,82.174 158.232 C 82.960 159.017,82.984 160.244,82.220 160.537 C 81.833 160.685,81.715 160.567,81.863 160.180 C 82.114 159.526,81.383 159.380,80.996 160.007 C 80.858 160.230,80.574 160.308,80.366 160.179 C 80.157 160.050,80.092 159.774,80.221 159.566 C 80.350 159.357,80.623 159.291,80.828 159.417 C 81.509 159.838,81.212 158.298,80.500 157.719 C 79.991 157.305,79.936 157.093,80.300 156.942 C 81.028 156.638,80.913 155.873,79.992 154.883 C 79.186 154.019,79.186 154.014,79.977 153.223 C 80.950 152.250,80.267 151.635,79.242 152.562 C 78.853 152.914,78.415 153.081,78.268 152.934 C 77.807 152.473,77.975 152.000,78.600 152.000 C 78.930 152.000,79.200 151.755,79.200 151.455 C 79.200 151.090,78.871 150.974,78.200 151.102 C 77.148 151.303,76.695 153.641,77.600 154.200 C 77.820 154.336,78.000 154.851,78.000 155.344 C 78.000 155.837,78.225 156.482,78.500 156.779 C 78.775 157.075,78.820 157.218,78.600 157.097 C 78.351 156.959,78.176 158.072,78.137 160.053 C 78.097 162.027,77.870 163.480,77.537 163.892 C 77.157 164.360,77.146 164.466,77.500 164.253 C 77.775 164.088,78.000 164.143,78.000 164.376 C 78.000 164.609,77.847 164.800,77.661 164.800 C 77.474 164.800,77.306 165.367,77.286 166.061 C 77.266 166.754,77.014 167.474,76.725 167.661 C 76.301 167.935,76.315 168.076,76.800 168.394 C 77.201 168.657,77.234 168.790,76.900 168.794 C 76.625 168.797,76.400 169.070,76.400 169.400 C 76.400 169.730,76.220 170.000,76.000 170.000 C 75.780 170.000,75.600 170.253,75.600 170.562 C 75.600 171.228,73.932 174.541,73.500 174.733 C 73.335 174.807,73.200 175.123,73.200 175.437 C 73.200 175.751,72.654 176.579,71.986 177.278 C 71.255 178.043,70.865 178.793,71.007 179.162 C 71.136 179.500,71.126 179.660,70.985 179.518 C 70.843 179.376,70.106 179.900,69.346 180.683 C 67.001 183.097,66.725 182.284,66.757 173.057 C 66.767 170.080,66.945 168.107,67.235 167.757 C 67.587 167.334,67.579 167.056,67.200 166.600 C 66.809 166.129,66.808 166.000,67.194 166.000 C 67.464 166.000,67.587 165.743,67.467 165.429 C 67.346 165.115,67.507 164.643,67.824 164.380 C 68.544 163.783,68.610 162.244,67.900 162.611 C 67.625 162.753,67.850 162.478,68.400 162.000 C 68.950 161.522,69.175 161.247,68.900 161.389 C 68.625 161.531,68.400 161.457,68.400 161.224 C 68.400 160.991,68.580 160.800,68.800 160.800 C 69.020 160.800,69.200 160.416,69.200 159.947 C 69.200 159.478,69.566 158.776,70.014 158.388 C 70.461 158.000,70.779 157.529,70.721 157.341 C 70.662 157.154,70.971 156.589,71.407 156.087 C 71.843 155.585,72.203 155.045,72.207 154.887 C 72.210 154.729,72.570 154.189,73.007 153.687 C 73.443 153.185,73.823 152.600,73.850 152.387 C 73.877 152.174,73.922 151.809,73.950 151.576 C 73.978 151.343,74.208 151.281,74.462 151.438 C 74.741 151.611,74.815 151.548,74.649 151.279 C 74.246 150.627,73.196 151.156,71.485 152.877 C 70.651 153.715,69.821 154.400,69.640 154.400 C 69.459 154.400,69.403 154.879,69.515 155.465 C 69.684 156.350,69.601 156.486,69.026 156.265 C 68.646 156.119,68.259 156.000,68.167 156.000 C 68.075 156.000,68.000 155.460,68.000 154.800 C 68.000 153.980,67.803 153.600,67.376 153.600 C 66.976 153.600,66.866 153.779,67.069 154.100 C 67.843 155.323,67.542 156.800,66.520 156.800 C 65.904 156.800,65.599 156.988,65.708 157.300 C 65.804 157.575,66.179 157.747,66.541 157.682 C 67.318 157.544,67.434 158.225,66.683 158.513 C 65.202 159.081,64.202 156.748,65.605 155.997 C 66.283 155.634,66.338 155.431,65.952 154.710 C 65.566 153.989,65.633 153.741,66.377 153.138 C 66.863 152.744,67.142 152.229,66.996 151.994 C 66.850 151.758,66.930 151.325,67.174 151.031 C 67.516 150.619,67.420 150.446,66.751 150.271 C 66.116 150.105,66.003 150.163,66.329 150.489 C 66.655 150.815,66.485 151.200,65.695 151.932 C 64.622 152.927,63.287 155.041,64.017 154.590 C 64.714 154.159,64.415 154.755,63.511 155.597 C 62.782 156.277,62.705 156.557,63.084 157.163 C 63.466 157.774,63.429 157.893,62.873 157.851 C 62.501 157.823,62.197 158.089,62.194 158.446 C 62.191 158.801,61.932 159.400,61.620 159.776 C 61.128 160.368,61.129 160.510,61.626 160.824 C 62.069 161.105,61.995 161.189,61.300 161.194 C 60.439 161.200,60.295 160.970,60.286 159.581 C 60.282 158.825,58.855 158.658,58.053 159.319 C 57.583 159.706,57.508 159.683,57.666 159.200 C 57.774 158.870,58.254 158.542,58.731 158.472 C 59.733 158.325,59.843 157.786,59.036 156.978 C 58.725 156.668,58.566 156.051,58.682 155.607 C 58.801 155.153,58.698 154.800,58.447 154.800 C 58.201 154.800,58.000 154.440,58.000 154.000 C 58.000 153.560,57.820 153.200,57.600 153.200 C 57.380 153.200,57.200 152.966,57.200 152.680 C 57.200 152.394,56.975 151.935,56.700 151.660 C 56.425 151.385,56.192 150.944,56.182 150.680 C 56.172 150.416,55.953 150.243,55.696 150.295 C 55.432 150.349,55.328 150.131,55.457 149.795 C 55.583 149.468,55.486 149.200,55.243 149.200 C 54.999 149.200,54.800 149.416,54.800 149.680 C 54.800 150.044,54.680 150.040,54.303 149.663 C 53.908 149.268,53.915 149.100,54.340 148.837 C 54.785 148.562,54.785 148.365,54.341 147.654 C 53.681 146.597,53.020 146.515,53.579 147.560 C 53.897 148.154,53.834 148.379,53.293 148.591 C 52.692 148.826,52.758 148.988,53.784 149.813 C 55.048 150.828,54.888 151.697,53.587 150.885 C 52.657 150.304,51.662 150.224,52.220 150.775 C 53.235 151.776,54.951 152.347,55.716 151.938 C 56.316 151.617,56.425 151.636,56.186 152.022 C 55.969 152.375,56.043 152.427,56.438 152.197 C 56.747 152.018,56.595 152.317,56.100 152.861 C 55.605 153.406,55.200 154.006,55.200 154.194 C 55.200 154.383,54.902 154.866,54.538 155.269 C 53.922 155.949,53.922 156.000,54.538 156.000 C 54.902 156.000,55.200 156.180,55.200 156.400 C 55.200 156.620,54.840 156.800,54.400 156.800 C 53.942 156.800,53.600 156.533,53.600 156.176 C 53.600 155.822,53.409 155.671,53.157 155.826 C 52.859 156.011,52.803 155.822,52.984 155.250 C 53.178 154.639,53.084 154.400,52.650 154.400 C 52.317 154.400,51.769 154.006,51.432 153.524 C 51.094 153.042,50.694 152.773,50.541 152.926 C 50.388 153.078,50.686 153.652,51.201 154.202 C 51.978 155.028,52.024 155.200,51.470 155.200 C 51.101 155.200,50.800 155.039,50.800 154.843 C 50.800 154.646,50.539 154.386,50.220 154.263 C 49.652 154.045,49.789 155.118,50.392 155.600 C 50.529 155.710,50.961 156.486,51.351 157.324 C 51.741 158.162,52.317 158.947,52.630 159.067 C 52.944 159.187,53.200 159.457,53.200 159.666 C 53.200 159.876,53.020 159.936,52.800 159.800 C 52.200 159.429,52.319 159.976,52.983 160.640 C 53.304 160.961,53.471 161.470,53.356 161.771 C 53.240 162.072,53.338 162.438,53.573 162.583 C 53.808 162.728,54.000 163.456,54.000 164.200 C 54.000 164.944,54.180 165.664,54.400 165.800 C 54.620 165.936,54.800 167.282,54.800 168.790 C 54.800 170.610,54.968 171.602,55.300 171.736 C 55.697 171.897,55.694 172.014,55.288 172.300 C 54.941 172.546,54.778 173.744,54.781 176.031 C 54.791 182.525,54.280 183.296,51.732 180.637 C 50.780 179.643,50.000 178.643,50.000 178.415 C 50.000 178.187,49.820 178.000,49.600 178.000 C 49.380 178.000,49.200 177.736,49.200 177.414 C 49.200 177.092,48.840 176.635,48.400 176.400 C 47.960 176.165,47.600 175.708,47.600 175.386 C 47.600 175.064,47.465 174.799,47.300 174.797 C 47.135 174.795,46.792 174.345,46.537 173.796 C 46.283 173.248,46.251 172.908,46.467 173.041 C 46.683 173.175,46.622 172.905,46.333 172.442 C 46.044 171.979,45.671 171.600,45.504 171.600 C 45.337 171.600,45.200 170.992,45.200 170.249 C 45.200 169.506,44.922 168.667,44.582 168.385 C 44.242 168.103,44.056 167.631,44.169 167.336 C 44.282 167.041,44.201 166.800,43.987 166.800 C 43.768 166.800,43.600 165.318,43.600 163.376 C 43.600 161.196,43.455 160.043,43.200 160.200 C 42.980 160.336,42.800 160.257,42.800 160.024 C 42.800 159.791,42.980 159.600,43.200 159.600 C 43.782 159.600,43.691 157.303,43.100 157.065 C 42.700 156.904,42.700 156.857,43.100 156.832 C 43.375 156.814,43.600 156.609,43.600 156.376 C 43.600 156.143,43.420 156.064,43.200 156.200 C 42.980 156.336,42.800 156.257,42.800 156.024 C 42.800 155.791,43.002 155.600,43.249 155.600 C 43.576 155.600,43.579 155.456,43.258 155.070 C 42.946 154.694,42.943 154.417,43.247 154.113 C 44.244 153.116,43.461 152.275,42.400 153.202 C 41.850 153.683,41.453 154.329,41.518 154.638 C 41.588 154.976,41.309 155.200,40.818 155.200 C 40.368 155.200,40.000 155.459,40.000 155.776 C 40.000 156.093,39.809 156.471,39.575 156.616 C 39.063 156.932,37.529 155.639,37.833 155.147 C 37.951 154.956,37.846 154.800,37.601 154.800 C 37.333 154.800,37.443 154.312,37.877 153.577 C 38.594 152.363,38.593 152.349,37.604 151.603 L 36.609 150.853 37.728 150.427 C 38.763 150.034,38.804 149.940,38.268 149.175 C 37.949 148.720,37.780 148.000,37.891 147.574 C 38.112 146.728,37.685 146.491,37.396 147.300 M68.537 147.380 C 68.685 147.767,68.567 147.885,68.180 147.737 C 67.861 147.614,67.600 147.675,67.600 147.872 C 67.600 148.069,67.975 148.258,68.434 148.293 C 68.994 148.335,69.199 148.174,69.057 147.804 C 68.940 147.500,69.060 147.164,69.322 147.057 C 69.585 146.951,69.466 146.849,69.057 146.832 C 68.567 146.811,68.390 146.997,68.537 147.380 M43.441 148.236 C 43.162 148.965,43.453 149.600,44.066 149.600 C 44.297 149.600,44.382 149.330,44.255 149.000 C 44.129 148.670,44.210 148.400,44.436 148.400 C 44.662 148.400,44.736 148.220,44.600 148.000 C 44.235 147.409,43.719 147.514,43.441 148.236 M67.083 149.066 C 66.777 149.561,68.133 150.934,68.532 150.534 C 68.984 150.082,68.830 149.600,68.233 149.600 C 67.922 149.600,67.595 149.384,67.507 149.120 C 67.398 148.793,67.262 148.776,67.083 149.066 M97.500 150.276 C 97.115 150.376,96.800 150.625,96.800 150.829 C 96.800 151.033,96.530 151.200,96.200 151.200 C 95.870 151.200,95.600 151.380,95.600 151.600 C 95.600 152.152,96.059 152.081,96.976 151.387 C 97.521 150.975,97.834 150.932,98.026 151.243 C 98.226 151.566,98.374 151.566,98.574 151.243 C 98.724 150.999,98.612 150.797,98.324 150.794 C 97.943 150.789,97.964 150.682,98.400 150.400 C 99.019 150.000,98.716 149.958,97.500 150.276 M43.478 150.656 C 43.158 150.975,43.519 151.600,44.024 151.600 C 44.231 151.600,44.400 151.330,44.400 151.000 C 44.400 150.381,43.928 150.205,43.478 150.656 M47.251 151.498 C 48.377 152.930,48.756 153.192,49.370 152.956 C 49.717 152.823,50.000 152.532,50.000 152.308 C 50.000 152.057,49.792 152.075,49.453 152.356 C 49.037 152.701,48.786 152.665,48.404 152.205 C 48.128 151.872,48.059 151.597,48.251 151.594 C 48.695 151.586,47.520 150.814,47.051 150.806 C 46.859 150.803,46.949 151.114,47.251 151.498 M91.333 151.626 C 91.651 152.080,91.823 152.792,91.714 153.208 C 91.466 154.155,93.391 154.786,94.129 154.001 C 94.501 153.605,94.367 153.541,93.490 153.696 C 92.172 153.930,91.807 153.509,92.387 152.425 C 92.729 151.786,92.660 151.553,92.031 151.217 C 90.874 150.597,90.689 150.706,91.333 151.626 M25.000 151.600 C 24.864 151.820,25.134 152.000,25.600 152.000 C 26.066 152.000,26.336 151.820,26.200 151.600 C 26.064 151.380,25.794 151.200,25.600 151.200 C 25.406 151.200,25.136 151.380,25.000 151.600 M68.800 152.200 C 68.800 152.530,68.980 152.800,69.200 152.800 C 69.420 152.800,69.600 152.530,69.600 152.200 C 69.600 151.870,69.420 151.600,69.200 151.600 C 68.980 151.600,68.800 151.870,68.800 152.200 M80.700 153.476 C 80.315 153.576,80.000 153.825,80.000 154.029 C 80.000 154.613,81.050 154.462,81.600 153.800 C 82.103 153.193,81.968 153.144,80.700 153.476 M28.400 154.800 C 28.400 155.020,28.040 155.200,27.600 155.200 C 27.160 155.200,26.800 155.020,26.800 154.800 C 26.800 154.580,27.160 154.400,27.600 154.400 C 28.040 154.400,28.400 154.580,28.400 154.800 M56.480 156.080 C 56.107 156.453,56.000 156.347,56.000 155.600 C 56.000 154.853,56.107 154.747,56.480 155.120 C 56.853 155.493,56.853 155.707,56.480 156.080 M92.400 155.424 C 92.400 155.767,92.580 155.936,92.800 155.800 C 93.020 155.664,93.200 155.934,93.200 156.400 C 93.200 156.866,93.020 157.136,92.800 157.000 C 92.574 156.860,92.400 157.188,92.400 157.753 C 92.400 158.303,92.580 158.864,92.800 159.000 C 93.020 159.136,93.200 159.062,93.200 158.836 C 93.200 158.610,93.470 158.529,93.800 158.655 C 94.405 158.888,94.578 158.312,94.417 156.600 C 94.291 155.259,92.400 154.156,92.400 155.424 M164.606 155.324 C 163.190 156.173,161.981 157.741,162.496 158.059 C 162.847 158.277,162.832 158.592,162.434 159.336 C 161.860 160.409,162.110 161.200,163.024 161.200 C 163.341 161.200,163.600 161.539,163.600 161.953 C 163.600 162.382,163.988 162.831,164.500 162.996 C 165.349 163.268,165.355 163.296,164.610 163.489 C 162.938 163.921,162.826 164.584,162.813 174.156 C 162.798 184.765,162.647 184.367,166.676 184.387 C 169.563 184.402,169.631 184.334,170.268 180.800 C 170.854 177.550,170.955 165.743,170.400 165.400 C 170.180 165.264,170.000 164.803,170.000 164.376 C 170.000 163.818,169.723 163.600,169.013 163.600 C 168.301 163.600,168.089 163.433,168.254 163.002 C 168.381 162.674,168.656 162.511,168.867 162.641 C 169.751 163.188,170.800 161.497,170.800 159.524 C 170.800 157.623,169.846 155.401,169.202 155.799 C 169.031 155.905,168.668 155.723,168.396 155.396 C 167.811 154.690,165.727 154.651,164.606 155.324 M27.200 156.600 C 27.200 156.930,27.031 157.200,26.824 157.200 C 26.319 157.200,25.958 156.575,26.278 156.256 C 26.728 155.805,27.200 155.981,27.200 156.600 M146.800 156.853 C 146.800 157.044,146.470 157.200,146.068 157.200 C 144.992 157.200,144.240 158.870,144.598 160.467 C 144.762 161.200,144.957 166.635,145.031 172.544 C 145.154 182.308,145.232 183.337,145.883 183.831 C 146.673 184.430,150.800 184.611,150.800 184.047 C 150.800 183.852,151.160 183.599,151.600 183.484 C 152.655 183.208,152.873 158.016,151.830 156.973 C 151.205 156.348,146.800 156.243,146.800 156.853 M37.600 157.175 C 37.600 157.381,37.240 157.523,36.800 157.490 C 36.360 157.457,36.000 157.288,36.000 157.115 C 36.000 156.942,36.360 156.800,36.800 156.800 C 37.240 156.800,37.600 156.969,37.600 157.175 M57.600 157.133 C 57.600 157.654,57.124 158.001,56.738 157.761 C 56.324 157.506,56.681 156.800,57.224 156.800 C 57.431 156.800,57.600 156.950,57.600 157.133 M55.700 157.888 C 55.425 157.986,55.200 158.322,55.200 158.633 C 55.200 158.945,55.009 159.200,54.776 159.200 C 54.543 159.200,54.481 158.975,54.639 158.700 C 55.238 157.652,55.723 157.190,55.957 157.445 C 56.091 157.591,55.975 157.790,55.700 157.888 M123.800 157.600 C 123.360 157.789,122.520 157.956,121.933 157.972 C 121.347 157.987,120.776 158.225,120.665 158.500 C 120.523 158.851,120.454 158.860,120.432 158.529 C 120.388 157.883,115.600 160.386,115.600 161.055 C 115.600 161.341,115.060 161.975,114.400 162.463 C 113.740 162.951,113.200 163.587,113.200 163.875 C 113.200 164.164,113.020 164.400,112.800 164.400 C 112.580 164.400,112.400 164.760,112.400 165.200 C 112.400 165.640,112.220 166.000,112.000 166.000 C 111.780 166.000,111.600 166.452,111.600 167.005 C 111.600 167.558,111.375 168.374,111.100 168.818 C 110.688 169.483,110.705 169.691,111.200 170.006 C 111.599 170.260,111.632 170.390,111.300 170.394 C 111.025 170.397,110.800 170.655,110.800 170.967 C 110.800 171.278,111.025 171.625,111.300 171.736 C 111.680 171.890,111.660 172.036,111.218 172.344 C 110.737 172.679,110.723 172.910,111.142 173.691 C 111.419 174.210,111.691 174.936,111.745 175.306 C 111.799 175.675,111.969 176.102,112.122 176.255 C 112.275 176.408,112.400 176.863,112.400 177.267 C 112.400 177.670,112.536 178.000,112.702 178.000 C 112.869 178.000,113.244 178.540,113.536 179.200 C 113.859 179.931,114.367 180.400,114.834 180.400 C 115.333 180.400,115.600 180.678,115.600 181.200 C 115.600 181.654,115.867 182.000,116.217 182.000 C 116.556 182.000,117.220 182.360,117.692 182.800 C 118.164 183.240,118.931 183.600,119.395 183.600 C 119.860 183.600,120.428 183.788,120.658 184.018 C 121.415 184.775,129.152 184.552,130.600 183.732 C 131.040 183.483,131.529 183.306,131.687 183.339 C 131.845 183.373,132.328 183.097,132.761 182.727 C 133.193 182.356,134.009 181.750,134.574 181.381 C 136.126 180.363,135.952 178.728,134.100 176.927 C 132.625 175.493,130.689 174.969,130.065 175.834 C 129.919 176.036,129.260 176.447,128.600 176.747 C 127.940 177.048,127.087 177.452,126.705 177.647 C 125.856 178.079,124.638 178.105,124.233 177.700 C 123.917 177.384,123.699 177.331,122.387 177.250 C 121.941 177.222,121.458 176.885,121.315 176.500 C 121.172 176.115,120.728 175.509,120.328 175.153 C 119.927 174.797,119.600 174.212,119.600 173.853 C 119.600 173.494,119.420 173.200,119.200 173.200 C 118.980 173.200,118.800 172.300,118.800 171.200 C 118.800 170.100,118.980 169.200,119.200 169.200 C 119.420 169.200,119.600 168.912,119.600 168.560 C 119.600 167.642,122.170 165.200,123.136 165.200 C 123.585 165.200,124.064 165.020,124.200 164.800 C 124.506 164.305,125.778 164.282,126.705 164.753 C 127.087 164.948,127.940 165.329,128.600 165.600 C 129.260 165.871,130.113 166.252,130.495 166.447 C 131.629 167.024,133.200 166.873,133.200 166.187 C 133.200 165.851,133.515 165.456,133.900 165.310 C 136.052 164.495,136.255 162.135,134.300 160.660 C 132.012 158.935,130.013 158.000,128.611 158.000 C 127.861 158.000,127.136 157.820,127.000 157.600 C 126.704 157.121,124.915 157.121,123.800 157.600 M261.200 157.600 C 260.870 157.813,260.122 157.991,259.538 157.994 C 257.288 158.007,253.874 160.360,252.853 162.600 C 252.553 163.260,252.148 164.113,251.953 164.495 C 251.476 165.433,251.505 167.494,252.000 167.800 C 252.220 167.936,252.400 168.414,252.400 168.863 C 252.400 169.313,253.215 170.449,254.214 171.392 C 255.893 172.978,257.093 173.528,259.561 173.840 C 260.089 173.907,260.710 174.150,260.941 174.381 C 261.171 174.611,261.776 174.800,262.285 174.800 C 264.032 174.800,266.554 176.648,265.330 177.030 C 264.928 177.156,264.287 177.425,263.905 177.629 C 262.974 178.127,259.600 178.104,259.600 177.600 C 259.600 177.380,259.100 177.200,258.488 177.200 C 257.835 177.200,257.139 176.870,256.800 176.400 C 255.519 174.622,252.400 176.296,252.400 178.762 C 252.400 179.223,252.220 179.600,252.000 179.600 C 251.408 179.600,251.507 181.998,252.100 182.009 C 252.375 182.014,253.050 182.370,253.600 182.800 C 254.150 183.230,254.969 183.586,255.420 183.591 C 255.871 183.596,256.434 183.794,256.672 184.032 C 257.266 184.626,267.322 184.634,267.520 184.040 C 267.601 183.798,268.012 183.600,268.433 183.600 C 268.855 183.600,269.200 183.420,269.200 183.200 C 269.200 182.980,269.483 182.800,269.829 182.800 C 270.540 182.800,271.600 181.868,271.600 181.243 C 271.600 181.015,271.960 180.635,272.400 180.400 C 272.860 180.154,273.200 179.562,273.200 179.010 C 273.200 178.480,273.380 177.936,273.600 177.800 C 273.820 177.664,274.000 176.854,274.000 176.000 C 274.000 175.146,273.820 174.336,273.600 174.200 C 273.380 174.064,273.200 173.675,273.200 173.336 C 273.200 171.811,267.805 167.834,267.146 168.873 C 266.893 169.273,266.811 169.279,266.806 168.900 C 266.803 168.625,266.451 168.400,266.024 168.400 C 265.597 168.400,265.131 168.213,264.990 167.984 C 264.848 167.755,264.413 167.669,264.023 167.793 C 263.630 167.917,263.087 167.746,262.807 167.409 C 262.529 167.074,261.885 166.800,261.375 166.800 C 260.103 166.800,259.782 166.104,260.623 165.175 C 261.333 164.390,265.486 164.019,266.148 164.682 C 266.303 164.837,266.918 165.028,267.515 165.106 C 268.112 165.185,268.771 165.418,268.980 165.625 C 269.977 166.610,271.600 165.497,271.600 163.829 C 271.600 163.263,271.780 162.800,272.000 162.800 C 272.704 162.800,272.442 160.162,271.669 159.462 C 270.808 158.683,269.821 158.571,270.241 159.300 C 270.399 159.575,270.083 159.395,269.539 158.900 C 268.894 158.314,268.042 158.000,267.098 158.000 C 266.300 158.000,265.536 157.820,265.400 157.600 C 265.084 157.089,261.990 157.089,261.200 157.600 M56.800 160.000 C 56.800 160.440,56.620 160.800,56.400 160.800 C 56.180 160.800,56.000 160.440,56.000 160.000 C 56.000 159.560,56.180 159.200,56.400 159.200 C 56.620 159.200,56.800 159.560,56.800 160.000 M67.000 160.400 C 66.602 160.840,66.079 161.186,65.838 161.168 C 65.585 161.150,65.611 161.052,65.900 160.935 C 66.175 160.824,66.400 160.478,66.400 160.167 C 66.400 159.855,66.698 159.600,67.062 159.600 C 67.657 159.600,67.651 159.681,67.000 160.400 M95.994 160.900 C 95.989 161.628,95.914 161.685,95.600 161.200 C 95.099 160.424,95.099 160.000,95.600 160.000 C 95.820 160.000,95.997 160.405,95.994 160.900 M349.652 163.525 C 348.690 163.594,347.225 164.079,346.396 164.603 C 345.566 165.126,344.749 165.430,344.580 165.277 C 344.410 165.125,344.401 165.225,344.559 165.500 C 344.718 165.775,344.693 166.000,344.504 166.000 C 343.829 166.000,341.469 168.672,341.328 169.596 C 341.249 170.113,341.031 170.731,340.844 170.969 C 340.103 171.909,340.336 176.386,341.187 177.582 C 341.634 178.210,342.000 179.035,342.000 179.415 C 342.000 180.085,343.868 181.999,344.524 182.000 C 344.702 182.000,344.719 182.208,344.562 182.462 C 344.393 182.736,344.451 182.815,344.706 182.658 C 344.942 182.512,345.407 182.664,345.739 182.996 C 346.071 183.328,346.615 183.600,346.948 183.600 C 347.281 183.600,347.668 183.787,347.810 184.016 C 348.292 184.796,355.569 184.404,357.158 183.511 C 359.606 182.137,362.185 178.800,360.800 178.800 C 360.580 178.800,360.400 178.524,360.400 178.187 C 360.400 177.851,360.085 177.455,359.700 177.308 C 359.315 177.161,358.693 176.755,358.317 176.407 C 356.872 175.065,354.560 175.531,353.890 177.300 C 353.574 178.135,351.619 178.244,350.310 177.500 C 348.568 176.509,348.253 175.957,348.296 173.968 C 348.377 170.244,351.513 168.753,354.122 171.198 C 355.611 172.594,356.785 172.722,357.800 171.600 C 358.198 171.160,358.811 170.794,359.162 170.787 C 360.174 170.767,361.200 169.790,361.200 168.845 C 361.200 167.901,357.963 164.400,357.091 164.400 C 356.799 164.400,356.389 164.240,356.180 164.045 C 355.736 163.630,352.160 163.345,349.652 163.525 M181.052 164.343 C 180.460 164.996,180.385 166.181,180.424 174.150 L 180.468 183.215 181.614 183.807 C 186.331 186.246,188.456 184.203,188.377 177.303 C 188.328 172.988,188.436 171.918,189.005 171.049 C 189.701 169.986,191.315 169.615,191.804 170.407 C 191.942 170.630,192.210 170.717,192.400 170.600 C 193.030 170.211,193.255 171.179,193.446 175.107 C 193.900 184.452,193.864 184.364,197.314 184.387 C 200.963 184.412,201.200 183.993,201.200 177.525 C 201.200 173.481,201.342 171.813,201.715 171.471 C 202.742 170.533,204.043 169.979,204.516 170.280 C 204.782 170.449,205.180 170.591,205.400 170.594 C 205.623 170.597,205.853 172.017,205.919 173.799 C 205.984 175.558,206.209 177.169,206.419 177.379 C 206.628 177.588,206.800 179.009,206.800 180.536 C 206.800 183.902,207.243 184.375,210.400 184.375 C 213.980 184.375,214.000 184.334,214.000 176.880 C 214.000 172.609,213.851 170.355,213.557 170.174 C 213.236 169.975,213.241 169.822,213.573 169.617 C 214.162 169.253,212.490 166.000,211.713 166.000 C 211.417 166.000,211.057 165.685,210.912 165.300 C 210.768 164.915,210.368 164.381,210.025 164.113 C 209.236 163.498,202.333 163.427,201.732 164.028 C 201.497 164.263,201.011 164.499,200.652 164.551 C 200.294 164.604,199.775 164.908,199.500 165.228 C 199.225 165.548,199.041 165.736,199.092 165.646 C 199.875 164.255,190.723 162.954,188.648 164.162 C 188.083 164.491,187.850 164.475,187.714 164.100 C 187.401 163.234,181.873 163.436,181.052 164.343 M227.800 164.000 C 227.664 164.220,227.158 164.406,226.676 164.413 C 224.584 164.443,223.283 166.431,224.363 167.948 C 224.823 168.594,225.200 169.470,225.200 169.894 C 225.200 170.318,225.644 170.902,226.186 171.193 C 227.281 171.779,227.173 172.400,225.976 172.400 C 225.546 172.400,225.200 172.673,225.200 173.013 C 225.200 173.349,224.934 173.727,224.610 173.852 C 222.693 174.587,222.236 181.177,224.100 181.197 C 224.265 181.199,224.400 181.474,224.400 181.809 C 224.400 182.143,224.895 182.635,225.500 182.900 C 226.105 183.166,226.740 183.605,226.911 183.876 C 227.263 184.434,234.305 184.477,234.647 183.924 C 234.934 183.459,236.400 183.523,236.400 184.000 C 236.400 184.573,241.270 184.473,242.044 183.884 C 242.824 183.290,243.171 169.876,242.419 169.412 C 242.188 169.269,242.000 168.803,242.000 168.376 C 242.000 167.949,241.820 167.600,241.600 167.600 C 241.380 167.600,241.200 167.358,241.200 167.062 C 241.200 166.390,240.241 165.526,238.288 164.441 C 236.627 163.518,228.314 163.168,227.800 164.000 M280.100 164.198 C 279.498 164.882,279.450 165.860,280.000 166.200 C 280.220 166.336,280.400 166.775,280.400 167.175 C 280.400 167.575,280.659 168.117,280.976 168.380 C 281.293 168.643,281.454 169.115,281.333 169.429 C 281.213 169.743,281.314 170.000,281.557 170.000 C 281.801 170.000,282.000 170.360,282.000 170.800 C 282.000 171.240,282.180 171.600,282.400 171.600 C 282.620 171.600,282.800 171.938,282.800 172.351 C 282.800 172.764,283.059 173.317,283.376 173.580 C 283.693 173.843,283.865 174.286,283.758 174.565 C 283.651 174.844,283.840 175.301,284.177 175.581 C 284.515 175.861,284.700 176.238,284.589 176.418 C 284.478 176.598,284.570 176.858,284.793 176.996 C 285.017 177.134,285.200 177.597,285.200 178.024 C 285.200 178.451,285.380 178.800,285.600 178.800 C 285.820 178.800,286.000 179.228,286.000 179.751 C 286.000 180.274,286.235 180.897,286.522 181.135 C 286.838 181.398,286.978 182.124,286.878 182.984 C 286.698 184.521,284.850 185.041,283.621 183.900 C 283.190 183.500,283.139 183.500,283.365 183.900 C 283.520 184.175,283.472 184.400,283.257 184.400 C 283.042 184.400,282.802 184.205,282.722 183.966 C 282.479 183.237,280.400 185.645,280.400 186.655 C 280.400 187.175,280.220 187.600,280.000 187.600 C 279.780 187.600,279.600 187.960,279.600 188.400 C 279.600 188.840,279.864 189.200,280.186 189.200 C 280.508 189.200,280.965 189.560,281.200 190.000 C 281.446 190.460,282.038 190.800,282.590 190.800 C 283.120 190.800,283.664 190.980,283.800 191.200 C 283.936 191.420,284.926 191.600,286.000 191.600 C 287.074 191.600,288.064 191.420,288.200 191.200 C 288.336 190.980,288.797 190.800,289.224 190.800 C 289.651 190.800,290.000 190.620,290.000 190.400 C 290.000 190.180,290.245 190.000,290.545 190.000 C 291.270 190.000,293.247 188.000,292.968 187.549 C 292.848 187.354,293.041 187.082,293.398 186.946 C 293.754 186.809,293.949 186.443,293.830 186.133 C 293.711 185.823,293.880 185.467,294.207 185.342 C 294.533 185.217,294.800 184.810,294.800 184.437 C 294.800 184.065,294.979 183.581,295.198 183.362 C 295.416 183.144,295.636 182.478,295.685 181.882 C 295.734 181.287,295.915 180.800,296.087 180.800 C 296.259 180.800,296.400 180.530,296.400 180.200 C 296.400 179.870,296.580 179.600,296.800 179.600 C 297.020 179.600,297.200 179.251,297.200 178.824 C 297.200 178.397,297.372 177.941,297.583 177.811 C 297.793 177.681,297.873 177.333,297.760 177.039 C 297.646 176.744,297.834 176.223,298.177 175.880 C 298.520 175.537,298.800 174.974,298.800 174.629 C 298.800 174.283,298.980 174.000,299.200 174.000 C 299.420 174.000,299.600 173.651,299.600 173.224 C 299.600 172.797,299.780 172.336,300.000 172.200 C 300.220 172.064,300.400 171.513,300.400 170.976 C 300.400 170.439,300.580 170.000,300.800 170.000 C 301.020 170.000,301.200 169.542,301.200 168.983 C 301.200 168.424,301.544 167.598,301.964 167.147 C 302.425 166.652,302.702 165.826,302.664 165.063 L 302.600 163.800 299.251 163.742 C 296.275 163.691,295.881 163.769,295.705 164.442 C 295.596 164.859,295.348 165.200,295.153 165.200 C 294.959 165.200,294.800 165.740,294.800 166.400 C 294.800 167.060,294.620 167.600,294.400 167.600 C 294.180 167.600,294.000 167.960,294.000 168.400 C 294.000 168.840,293.801 169.200,293.557 169.200 C 293.314 169.200,293.211 169.453,293.330 169.761 C 293.448 170.070,293.293 170.655,292.985 171.061 C 292.677 171.468,292.420 172.194,292.413 172.676 C 292.406 173.158,292.193 173.681,291.939 173.838 C 291.357 174.197,290.383 172.910,290.670 172.161 C 290.789 171.853,290.686 171.600,290.443 171.600 C 290.199 171.600,290.000 171.257,290.000 170.838 C 290.000 170.419,289.614 169.294,289.143 168.338 C 288.672 167.382,288.087 166.150,287.843 165.600 C 287.599 165.050,287.188 164.375,286.929 164.100 C 286.247 163.377,280.754 163.456,280.100 164.198 M310.454 165.001 C 310.079 166.040,310.054 166.583,310.367 166.960 C 310.678 167.335,310.669 167.857,310.333 168.819 C 309.642 170.802,310.648 183.193,311.556 183.884 C 312.517 184.616,316.767 184.552,317.054 183.802 C 317.181 183.474,317.426 183.293,317.600 183.400 C 317.774 183.508,317.942 181.212,317.974 178.298 C 318.032 172.844,318.480 170.800,319.618 170.800 C 319.960 170.800,320.442 170.598,320.689 170.351 C 321.263 169.777,323.587 171.340,323.628 172.327 C 323.644 172.697,323.648 175.070,323.638 177.600 C 323.614 183.423,324.274 184.371,328.331 184.339 C 331.484 184.315,331.554 184.137,331.501 176.277 C 331.476 172.581,331.308 169.467,331.128 169.355 C 330.947 169.244,330.800 168.758,330.800 168.276 C 330.799 167.167,329.394 165.520,327.580 164.501 C 325.992 163.609,319.486 163.214,319.012 163.980 C 318.870 164.211,318.303 164.400,317.753 164.400 C 317.203 164.400,316.848 164.245,316.965 164.056 C 317.082 163.867,315.782 163.678,314.076 163.637 L 310.974 163.563 310.454 165.001 M234.000 170.322 C 234.000 170.703,228.032 171.765,227.708 171.441 C 227.586 171.319,227.826 171.112,228.243 170.981 C 228.659 170.850,229.270 170.586,229.600 170.395 C 230.362 169.953,234.000 169.893,234.000 170.322 M234.800 177.400 C 234.800 177.759,234.431 178.000,233.880 178.000 C 233.374 178.000,232.756 178.204,232.507 178.453 C 231.936 179.024,230.800 178.617,230.800 177.840 C 230.800 177.251,231.672 176.955,233.700 176.854 C 234.435 176.818,234.800 176.999,234.800 177.400 M61.200 186.824 C 61.200 187.251,61.380 187.600,61.600 187.600 C 61.820 187.600,62.000 188.125,62.000 188.767 C 62.000 189.408,62.203 190.001,62.450 190.083 C 62.698 190.166,62.900 190.721,62.900 191.317 C 62.900 191.946,63.121 192.400,63.426 192.400 C 65.548 192.400,63.760 193.095,61.486 193.155 C 59.899 193.196,58.300 193.320,57.934 193.431 C 57.567 193.542,57.153 193.447,57.013 193.221 C 56.862 192.976,57.010 192.906,57.379 193.047 C 57.817 193.216,58.000 193.041,58.000 192.455 C 58.000 191.998,58.360 190.983,58.800 190.200 C 59.240 189.417,59.600 188.520,59.600 188.207 C 59.600 187.281,60.489 185.608,60.858 185.836 C 61.046 185.952,61.200 186.397,61.200 186.824 " stroke="none" fill="#f0f2fc" fill-rule="evenodd"/></g></svg>